<mxfile host="app.diagrams.net" agent="Mozilla/5.0 (Macintosh; Intel Mac OS X 10_15_7) AppleWebKit/605.1.15 (KHTML, like Gecko) Version/18.1.1 Safari/605.1.15" version="28.0.7">
  <diagram name="Page-1" id="SPSQtEjYzqvxHJcL-44c">
    <mxGraphModel dx="1665" dy="912" grid="1" gridSize="10" guides="1" tooltips="1" connect="1" arrows="1" fold="1" page="1" pageScale="1" pageWidth="827" pageHeight="1169" math="0" shadow="0">
      <root>
        <mxCell id="0" />
        <mxCell id="1" parent="0" />
        <mxCell id="nmn-EADKqHjRLLAk0anp-1" value="" style="verticalLabelPosition=bottom;verticalAlign=top;html=1;shape=mxgraph.basic.rect;fillColor2=none;strokeWidth=1;size=20;indent=5;fillColor=none;dashed=1;" parent="1" vertex="1">
          <mxGeometry x="105" y="291" width="614" height="451" as="geometry" />
        </mxCell>
        <mxCell id="nmn-EADKqHjRLLAk0anp-3" value="&lt;span style=&quot;&quot;&gt;Editor Agent&lt;/span&gt;" style="sketch=0;outlineConnect=0;fontColor=light-dark(#333333,#FFFFFF);fillColor=#1ba1e2;strokeColor=#006EAF;dashed=0;verticalLabelPosition=bottom;verticalAlign=top;align=center;html=1;fontSize=12;fontStyle=0;aspect=fixed;pointerEvents=1;shape=mxgraph.aws4.sagemaker_model;" parent="1" vertex="1">
          <mxGeometry x="438" y="620" width="78" height="78" as="geometry" />
        </mxCell>
        <mxCell id="nmn-EADKqHjRLLAk0anp-4" value="&lt;span style=&quot;&quot;&gt;Analyst Agent&lt;/span&gt;" style="sketch=0;outlineConnect=0;fontColor=light-dark(#333333,#FFFFFF);fillColor=#1ba1e2;strokeColor=light-dark(#006EAF,#FFFFFF);dashed=0;verticalLabelPosition=bottom;verticalAlign=top;align=center;html=1;fontSize=12;fontStyle=0;aspect=fixed;pointerEvents=1;shape=mxgraph.aws4.sagemaker_model;" parent="1" vertex="1">
          <mxGeometry x="280" y="620" width="78" height="78" as="geometry" />
        </mxCell>
        <mxCell id="nmn-EADKqHjRLLAk0anp-5" value="Writer Agent" style="sketch=0;outlineConnect=0;fontColor=light-dark(#333333,#FFFFFF);gradientColor=none;fillColor=#01A88D;strokeColor=none;dashed=0;verticalLabelPosition=bottom;verticalAlign=top;align=center;html=1;fontSize=12;fontStyle=0;aspect=fixed;pointerEvents=1;shape=mxgraph.aws4.sagemaker_model;" parent="1" vertex="1">
          <mxGeometry x="360" y="444" width="78" height="78" as="geometry" />
        </mxCell>
        <mxCell id="nmn-EADKqHjRLLAk0anp-6" value="" style="endArrow=block;dashed=1;html=1;rounded=0;endFill=1;startArrow=none;startFill=0;fontColor=light-dark(#333333,#FFFFFF);" parent="1" edge="1">
          <mxGeometry width="50" height="50" relative="1" as="geometry">
            <mxPoint x="468" y="611" as="sourcePoint" />
            <mxPoint x="420" y="551" as="targetPoint" />
          </mxGeometry>
        </mxCell>
        <mxCell id="nmn-EADKqHjRLLAk0anp-7" value="Feedback&lt;div&gt;&lt;br&gt;&lt;/div&gt;" style="edgeLabel;html=1;align=center;verticalAlign=middle;resizable=0;points=[];fontSize=12;labelBackgroundColor=none;fontColor=light-dark(#333333,#FFFFFF);" parent="nmn-EADKqHjRLLAk0anp-6" vertex="1" connectable="0">
          <mxGeometry x="-0.3252" y="1" relative="1" as="geometry">
            <mxPoint x="4" y="2" as="offset" />
          </mxGeometry>
        </mxCell>
        <mxCell id="nmn-EADKqHjRLLAk0anp-8" value="" style="endArrow=block;dashed=1;html=1;rounded=0;endFill=1;startArrow=none;startFill=0;fontColor=light-dark(#333333,#FFFFFF);" parent="1" edge="1">
          <mxGeometry width="50" height="50" relative="1" as="geometry">
            <mxPoint x="330" y="610" as="sourcePoint" />
            <mxPoint x="376.55" y="551" as="targetPoint" />
          </mxGeometry>
        </mxCell>
        <mxCell id="nmn-EADKqHjRLLAk0anp-9" value="Feedback&lt;div&gt;&lt;br&gt;&lt;/div&gt;" style="edgeLabel;html=1;align=center;verticalAlign=middle;resizable=0;points=[];fontSize=12;labelBackgroundColor=none;fontColor=light-dark(#333333,#FFFFFF);" parent="nmn-EADKqHjRLLAk0anp-8" vertex="1" connectable="0">
          <mxGeometry x="-0.3252" y="1" relative="1" as="geometry">
            <mxPoint x="-2" y="5" as="offset" />
          </mxGeometry>
        </mxCell>
        <mxCell id="nmn-EADKqHjRLLAk0anp-12" value="" style="endArrow=none;dashed=1;html=1;rounded=0;endFill=0;startArrow=classic;startFill=1;fontColor=light-dark(#333333,#FFFFFF);" parent="1" edge="1">
          <mxGeometry width="50" height="50" relative="1" as="geometry">
            <mxPoint x="348" y="480" as="sourcePoint" />
            <mxPoint x="242" y="479.6600000000001" as="targetPoint" />
          </mxGeometry>
        </mxCell>
        <mxCell id="nmn-EADKqHjRLLAk0anp-13" value="&lt;div&gt;Draft Report&lt;/div&gt;" style="edgeLabel;html=1;align=center;verticalAlign=middle;resizable=0;points=[];fontSize=12;fontColor=light-dark(#333333,#FFFFFF);" parent="nmn-EADKqHjRLLAk0anp-12" vertex="1" connectable="0">
          <mxGeometry x="-0.3252" y="1" relative="1" as="geometry">
            <mxPoint x="-20" y="12" as="offset" />
          </mxGeometry>
        </mxCell>
        <mxCell id="nmn-EADKqHjRLLAk0anp-14" value="1" style="ellipse;whiteSpace=wrap;html=1;aspect=fixed;fillColor=#fa6800;fillStyle=solid;fontColor=light-dark(#333333,#FFFFFF);strokeColor=#C73500;" parent="1" vertex="1">
          <mxGeometry x="278" y="441" width="30" height="30" as="geometry" />
        </mxCell>
        <mxCell id="nmn-EADKqHjRLLAk0anp-15" value="2" style="ellipse;whiteSpace=wrap;html=1;aspect=fixed;fillColor=#fa6800;fillStyle=solid;fontColor=light-dark(#333333,#FFFFFF);strokeColor=#C73500;" parent="1" vertex="1">
          <mxGeometry x="320" y="546" width="30" height="30" as="geometry" />
        </mxCell>
        <mxCell id="nmn-EADKqHjRLLAk0anp-16" value="3" style="ellipse;whiteSpace=wrap;html=1;aspect=fixed;fillColor=#fa6800;fillStyle=solid;fontColor=light-dark(#333333,#FFFFFF);strokeColor=#C73500;" parent="1" vertex="1">
          <mxGeometry x="446" y="546" width="30" height="30" as="geometry" />
        </mxCell>
        <mxCell id="nmn-EADKqHjRLLAk0anp-18" value="" style="endArrow=block;dashed=1;html=1;rounded=0;endFill=1;startArrow=classic;startFill=1;exitX=0.593;exitY=0.257;exitDx=0;exitDy=0;exitPerimeter=0;fontColor=light-dark(#333333,#FFFFFF);" parent="1" edge="1">
          <mxGeometry width="50" height="50" relative="1" as="geometry">
            <mxPoint x="452.0319999999999" y="479.8940000000001" as="sourcePoint" />
            <mxPoint x="560" y="480" as="targetPoint" />
          </mxGeometry>
        </mxCell>
        <mxCell id="nmn-EADKqHjRLLAk0anp-19" value="Check" style="edgeLabel;html=1;align=center;verticalAlign=middle;resizable=0;points=[];fontSize=12;fontColor=light-dark(#333333,#FFFFFF);" parent="nmn-EADKqHjRLLAk0anp-18" vertex="1" connectable="0">
          <mxGeometry x="-0.3252" y="1" relative="1" as="geometry">
            <mxPoint x="19" y="15" as="offset" />
          </mxGeometry>
        </mxCell>
        <mxCell id="nmn-EADKqHjRLLAk0anp-21" value="Investment Report" style="shadow=0;dashed=0;html=1;strokeColor=none;fillColor=#4495D1;labelPosition=center;verticalLabelPosition=bottom;verticalAlign=top;align=center;outlineConnect=0;shape=mxgraph.veeam.2d.report;fontColor=light-dark(#333333,#FFFFFF);" parent="1" vertex="1">
          <mxGeometry x="382.6" y="312" width="36.8" height="50.8" as="geometry" />
        </mxCell>
        <mxCell id="nmn-EADKqHjRLLAk0anp-22" value="4" style="ellipse;whiteSpace=wrap;html=1;aspect=fixed;fillColor=#fa6800;fillStyle=solid;fontColor=light-dark(#333333,#FFFFFF);strokeColor=#C73500;" parent="1" vertex="1">
          <mxGeometry x="493" y="441" width="30" height="30" as="geometry" />
        </mxCell>
        <mxCell id="nmn-EADKqHjRLLAk0anp-23" value="Client/Investor Agent" style="sketch=0;outlineConnect=0;fontColor=light-dark(#333333,#FFFFFF);gradientColor=none;fillColor=light-dark(#FFD966,#FFD966);strokeColor=none;dashed=0;verticalLabelPosition=bottom;verticalAlign=top;align=center;html=1;fontSize=12;fontStyle=0;aspect=fixed;pointerEvents=1;shape=mxgraph.aws4.sagemaker_model;" parent="1" vertex="1">
          <mxGeometry x="572" y="440.4" width="78" height="78" as="geometry" />
        </mxCell>
        <mxCell id="nmn-EADKqHjRLLAk0anp-24" value="Earnings Call" style="shape=image;verticalLabelPosition=bottom;labelBackgroundColor=none;verticalAlign=top;aspect=fixed;imageAspect=0;image=data:image/png,iVBORw0KGgoAAAANSUhEUgAAAgAAAAIACAYAAAD0eNT6AAAAAXNSR0IArs4c6QAAAERlWElmTU0AKgAAAAgAAYdpAAQAAAABAAAAGgAAAAAAA6ABAAMAAAABAAEAAKACAAQAAAABAAACAKADAAQAAAABAAACAAAAAAAL+LWFAABAAElEQVR4Ae2dB7g9VXW3LwIKKvaGtAuIFVsMNlBQMZ9G/WK+iBUUNBJF1JgY0UTx4GPXGEuwoJG/YguaqNgr3Y4dKSJcxIYKKoiCAn6/H9yjl+u9p+y1Z2bvmXc9z7rn3HNmrb3Wu6esM7Nnz0YLzcpI7p/fbBN4hwAEKifwX4p/f+nlledB+BCoisDVqoqWYCEAgT4SeIKSOkzK/qiPvUtOxRJggyu2awgMAoMiQBEwqO4m2RIIUACU0AvEAAEImABFAOsBBFokQAHQImyaggAEphKgCJiKiAUgkIcABUAejniBAATyEaAIyMcSTxBYlwAFwLpo+AICEOiQAEVAh/BpehgEKACG0c9kCYEaCVAE1NhrxFwNAQqAarqKQCEwSAIUAYPsdpJugwAFQBuUaQMCEIgQoAiI0MMWAusQoABYBwwfQwACRRGgCCiqOwimDwQoAPrQi+QAgWEQoAgYRj+TZUsEKABaAk0zEIBAFgIUAVkw4gQCzL3NOgABCNRHgCKgvj4j4gIJcAagwE4hJAhAYCoBioCpiFgAAt0SGKn5PySqbREIQKBOAiOFnbrtz2P3FrXDD5k61xGi7pgAG07HHUDzEIBAiABnAkL4MB4yAQqAIfc+uUOgHwQoAvrRj2TRMgEKgJaB0xwEINAIAYqARrDitM8EKAD63LvkBoFhEaAIGFZ/k22QAAVAECDmEIBAUQQoAorqDoIpmQAFQMm9Q2wQgEAKAYqAFGrYDI4ABcDgupyEITAIAhQBg+hmkowQoACI0MMWAhAomQBFQMm9Q2ydE6AA6LwLCAACEGiQAEVAg3BxXTcBCoC6+4/oIdBHAj/PnJSLgDdIN8rsF3cQqJoABUDV3UfwEOglgUOV1eszZ7a//L1Zyj4vM1jc1UuAjaHeviNyCPSZwIFKLncRwOWAPq8x5DY3AQqAuZFhAAEItEDADwSiCGgBNE0MlwAFwHD7nswhUDoBioDSe4j4qiZAAVB19xF8RQRGinWex9yuXNa2qTKS4Upf87y3bdfieDkT0HUv0H4vCVAA9LJbSQoCvSJAEdCr7iSZUghQAJTSE8QBAQhMIkARMIkO30EggQAFQAI0TCAAgU4IUAR0gp1G+0qAAqCvPUteEOgnAYqAfvYrWXVAgAKgA+g0CQEIhAhQBITwYQyBKwlQALAmQAACNRKgCKix14i5KAKbNBzNCfL/ssQ2bItAAAIQWI/AuAjwfsxT/eYSzxh4mfRJUreBQKCXBJouAD4talYEAhCAQBMEfID2gfpS6QEZG3BBsbHUr5dn9IsrCBRDgEsAxXQFgUAAAokExmcCeHZAIkDMhkmAAmCY/U7WEOgbAYqAvvUo+TROgAKgccQ0AAEItESAIqAl0DTTDwIUAP3oR7KAAASuJEARwJoAgRkJUADMCIrFIACBaghQBFTTVQTaJQEKgC7p0zYEINAUAYqApsjiFwIQgAAEIDCBwEjf+SCcorbNJRvJ0aHSlDgm2bxFPvkBlauX8NMJAVbgTrDTKAQg0BIBH8QPlHKLYEvAaaYeAhQA9fQVkUIAAmkEKALSuGHVcwIUAD3vYNKDAASuIEARwIoAgVUEKABWAeFfCECgtwQoAnrbtSSWQoACIIUaNhCAQK0EKAJq7Tnizk6AAiA7UhxCAAKFE6AIKLyDCK8dAk0/DXAPpWFNkWNkZEUgAAEI5CYwLgLsN+dTBP0oYQtPEbySA38LJtBGAfD8QP7HBGwxhQAEIDCJAEXAJDp813sCXALofReTIAQgMIHAuAhgnoAJkPiqnwQoAPrZr2QFAQjMToAiYHZWLNkjAhQAPepMUoEABJIJUAQko8OwVgIUALX2HHFDAAK5CVAE5CaKv6IJUAAU3T0EBwEItEyAIqBl4DTXHQEKgO7Y0zIEIFAmAYqAMvuFqDIToADIDBR3EIBALwhQBPSiG0liEgEKgEl0+A4CEBgyAYqAIff+AHKnABhAJ5MiBCCQTIAiIBkdhqUToAAovYeIDwIQ6JoARUDXPUD7jRCgAGgEK04hAIGeEaAI6FmHks7CAgUAawEEIACB2QhQBMzGiaUqIUABUElHESYEIFAEAYqAIrqBIHIQoADIQREfEIDAkAhQBAypt3ucKwVAjzuX1CAAgcYIUAQ0hhbHbRGgAGiLNO1AAAJ9I0AR0LceHVg+FAAD63DShQAEshKgCMiKE2dtEqAAaJM2bUEAAn0kQBHQx14dQE4UAAPoZFKEAAQaJ0AR0DhiGshNgAIgN1H8QQACQyVAETDUnq80bwqASjuOsCEAgSIJUAQU2S0EtRYBCoC1qPAZBCAAgXQCFAHp7LBskQAFQIuwaQoCEBgMAYqAwXR1vYlSANTbd0QOAQiUTYAioOz+GXx0FACDXwUAAAEINEiAIqBBuLiOEaAAiPHDGgIQgMA0AhQB0wjxfScEKAA6wU6jEIDAwAhQBAysw2tIlwKghl4iRghAoA8EKAL60Is9ymGTHuWSmsqiDPdNNcYOApUTGBUY/66K6aAC48oV0jlydK70prkcys8TpJdJnyR1oYFAYCoBCoCFhUVRev5UUiwAgX4SOERplXbA2FMxWZH5COyvxTeW+vXy+UxZeogEuAQwxF4nZwhAoK8EfCbgMCn79r72cMa8WEkywsQVBCAAgQIIUAQU0Ak1hEABUEMvESMEIACB+Qi4CHjDfCYsPTQCFABD63HyhQAEhkLAYwEQCKxLgAJgXTR8AQEIQAACEOgvAQqA/vYtmUEAAhCAAATWJUABsC4avoAABCAAAQj0lwAFQH/7lswgAAEIQAAC6xKgAFgXDV9AAAIQgAAE+kuAAqC/fUtmEIAABCAAgXUJUACsi4YvIAABCEAAAv0lQAHQ374lMwhAAAIQgMC6BCgA1kXDFxCAAAQgAIH+EuBpgAsLS+pePxENgcAQCTT1JMATBPNlQwTaQM59fjRyA7hwWQqBkQLxDiZFbYtAAAIQGDqBlP3n2Gbo7Mh/AgEuAUyAw1cQgAAEIACBvhKgAOhrz5IXBCAAAQhAYAIBCoAJcPgKAhCAAAQg0FcCFAB97VnyggAEIAABCEwgQAEwAQ5fQQACEIAABPpKgAKgrz1LXhCAAAQgAIEJBCgAJsDhKwhAAAIQgEBfCVAA9LVnyQsCEIAABCAwgQAFwAQ4fAUBCEAAAhDoKwEKgL72LHlBAAIQgAAEJhCgAJgAh68gAAEIQAACfSVAAdDXniUvCEAAAhCAwAQCFAAT4PAVBCAAAQhAoK8EKAD62rPkBQEIQAACEJhAgAJgAhy+ggAEIAABCPSVAAVAX3uWvCAAAQhAAAITCFAATIDDVxCAAAQgAIG+EqAA6GvPkhcEIAABCEBgAgEKgAlw+AoCEIAABCDQVwIUAH3tWfKCAAQgAAEITCBAATABDl9BAAIQgAAE+kqAAqCvPUteEIAABCAAgQkEKAAmwOErCEAAAhCAQF8JUAD0tWfJCwIQgAAEIDCBAAXABDh8BQEIQAACEOgrAQqAvvYseUEAAhCAAAQmEKAAmACHryAAAQhAAAJ9JUAB0NeeJS8IQAACEIDABAKbTPhuKF8tKtF9h5IseUIAAlkILMnLhiyecAKBjghQACwsLIr98zviT7MQgECdBI5V2BvqDJ2oIXAlAS4BsCZAAAIQgAAEBkiAAmCAnU7KEIAABCAAAQoA1gEIQAACEIDAAAlQAAyw00kZAhCAAAQgQAHAOgABCEAAAhAYIAEKgAF2OilDAAIQgAAEKABYByAAAQhAAAIDJEABMMBOJ2UIQAACEIAABQDrAAQgAAEIQGCABCgABtjppAwBCEAAAhCgAGAdgAAEIAABCAyQAAXAADudlCEAAQhAAAIUAKwDEIAABCAAgQES4GmACwtL6vdDBtj3pAwBCKQTWEo3xRICZRCgALiyABiV0R1EAQEIQAACEGiHAJcA2uFMKxCAAAQgAIGiCFAAFNUdBAMBCEAAAhBohwAFQDucaQUCEIAABCBQFAEKgKK6g2AgAAEIQAAC7RCgAGiHM61AAAIQgAAEiiJAAVBUdxAMBCAAAQhAoB0CFADtcKYVCEAAAhCAQFEEKACK6g6CgQAEIAABCLRDgAKgHc60AgEIQAACECiKAAVAUd1BMBCAAAQgAIF2CFAAtMOZViAAAQhAAAJFEaAAKKo7CAYCEIAABCDQDgEKgHY40woEIAABCECgKAIUAEV1B8FAAAIQgAAE2iFAAdAOZ1qBAAQgAAEIFEWAAqCo7iAYCEAAAhCAQDsEKADa4UwrEIAABCAAgaIIUAAU1R0EAwEIQAACEGiHAAVAO5xpBQIQgAAEIFAUAQqAorqDYCAAAQhAAALtEKAAaIczrUAAAhCAAASKIkABUFR3EAwEIAABCECgHQIUAO1wphUIQAACEIBAUQQoAIrqDoKBAAQgAAEItEOAAqAdzrQCAQhAAAIQKIoABUBR3UEwEIAABCAAgXYIUAC0w5lWIAABCEAAAkURoAAoqjsIBgIQgAAEINAOgU3aaaboVhYV3X5FR0hwTRI4XM6XEhvYV3bbJ9piVjeBsxT+hrpTIPqhE6AAWFhY1Epw8NBXhAHnf7RyX0rMf1/Z7Z5oi1ndBI5V+BvqToHoh06ASwBDXwPIHwIQgAAEBkmAAmCQ3U7SEIAABCAwdAIUAENfA8gfAhCAAAQGSYACYJDdTtIQgAAEIDB0AhQAQ18DyB8CEIAABAZJgAJgkN1O0hCAAAQgMHQCFABDXwPIHwIQgAAEBkmAAmCQ3U7SEIAABCAwdAIUAENfA8gfAhCAAAQGSYACYJDdTtIQgAAEIDB0AhQAQ18DyB8CEIAABAZJgAJgkN1O0hCAAAQgMHQCFABDXwPIHwIQgAAEBkmApwEuLPixnqNB9j5Jm4D7P1UOl+HRqcbYVU1gqeroCR4CIkABsLBwtjgcwtoAgQQCb0uwwQQCEIBAEQS4BFBENxAEBCAAAQhAoF0CFADt8qY1CEAAAhCAQBEEKACK6AaCgAAEIAABCLRLgAKgXd60BgEIQAACECiCAAVAEd1AEBCAAAQgAIF2CVAAtMub1iAAAQhAAAJFEKAAKKIbCAICEIAABCDQLgEKgHZ50xoEIAABCECgCAIUAEV0A0FAAAIQgAAE2iVAAdAub1qDAAQgAAEIFEGAAqCIbiAICEAAAhCAQLsEKADa5U1rEIAABCAAgSIIUAAU0Q0EAQEIQAACEGiXAAVAu7xpDQIQgAAEIFAEAQqAIrqBICAAAQhAAALtEqAAaJc3rUEAAhCAAASKIEABUEQ3EAQEIAABCECgXQIUAO3ypjUIQAACEIBAEQQoAIroBoKAAAQgAAEItEuAAqBd3rQGAQhAAAIQKIIABUAR3UAQEIAABCAAgXYJUAC0y5vWIAABCEAAAkUQoAAoohsIAgIQgAAEINAuAQqAdnnTGgQgAAEIQKAIAhQARXQDQUAAAhCAAATaJUAB0C5vWoMABCAAAQgUQYACoIhuIAgIQAACEIBAuwQoANrlTWsQgAAEIACBIghsUkQU3QaxqOb36zYEWocABCojcJbi3VBZzIQLgasQoABYWFgUkYOvQoV/IAABCEwmcKy+3jB5Eb6FQNkEuARQdv8QHQQgAAEIQKARAhQAjWDFKQQgAAEIQKBsAhQAZfcP0UEAAhCAAAQaIUAB0AhWnEIAAhCAAATKJkABUHb/EB0EIAABCECgEQIUAI1gxSkEIAABCECgbAIUAGX3D9FBAAIQgAAEGiFAAdAIVpxCAAIQgAAEyiZAAVB2/xAdBCAAAQhAoBECFACNYMUpBCAAAQhAoGwCFABl9w/RQQACEIAABBohQAHQCFacQgACEIAABMomQAFQdv8QHQQgAAEIQKARAjwNcGHBj/UcNUIXpxCAQF8JLPU1MfIaDgEKgIWFs9Xdhwyny8kUAhCAAAQgsLDAJQDWAghAAAIQgMAACVAADLDTSRkCEIAABCBAAcA6AAEIQAACEBggAQqAAXY6KUMAAhCAAAQoAFgHIAABCEAAAgMkQAEwwE4nZQhAAAIQgAAFAOsABCAAAQhAYIAEKAAG2OmkDAEIQAACEKAAYB2AAAQgAAEIDJAABcAAO52UIQABCEAAAhQArAMQgAAEIACBARKgABhgp5MyBCAAAQhAgAKAdQACEIAABCAwQAIUAAPsdFKGAAQgAAEIUACwDkAAAhCAAAQGSIACYICdTsoQgAAEIAABCgDWAQhAAAIQgMAACVAADLDTSRkCEIAABCBAAcA6AAEIQAACEBggAQqAAXY6KUMAAhCAAAQoAFgHIAABCEAAAgMkQAEwwE4nZQhAAAIQgAAFAOsABCAAAQhAYIAEKAAG2OmkDAEIQAACEKAAYB2AAAQgAAEIDJAABcAAO52UIQABCEAAAhQArAMQgAAEIACBARKgABhgp5MyBCAAAQhAYBMQLCyKwX5wgAAEGiVwuLwvNdoCziEAgbkIUAAsXFEAHDwXNRaGAATmJXCMDJbmNWJ5CECgOQJcAmiOLZ4hAAEIQAACxRKgACi2awgMAhCAAAQg0BwBCoDm2OIZAhCAAAQgUCwBCoBiu4bAIAABCEAAAs0RoABoji2eIQABCEAAAsUSoAAotmsIDAIQgAAEINAcAQqA5tjiGQIQgAAEIFAsAQqAYruGwCAAAQhAAALNEWAioObY4hkCEIDALAQ210I7SLeT3nhZb7b8eiO9RuQjMv659GfSnyy/+v3Z0u9JL5YiAyVAATDQjidtCECgdQLbq8U7SHeW3kK647LeXK9NyV9PcfxDfX+m1MXAGdJvS78hXZIiPSdAAdDzDiY9CECgEwI+wO8qvYv0jlIf+K8nLU22UkDWe60K7Jf634WA9STpiVIXCUiPCFAA9KgzSQUCEOiEgMdS+SDvg+huy7qlXmsWFyu7L+s4jx/pzQnLerxevym9XIpUSoACoNKOI2wIQKBTAjdU6/eV7il9sLTJ0/hyX4Q4x4cvqwPy2IKjpZ+WHiX1GAOkIgIUAAsLZ6m/RhX1GaFCoEYC3s5ql1soAR8AHyLdRbqxdMjiAYp7Levr9fol6YekR0q5XCAIQ5eRAPwhUW2LQAACEOiSwDZq/OnSE6Q+3Z26Pxua3cliNZK6aEIGSmCkvFNXfNsiEIAABNomsIUafKL081IO+un7cO/7ze9zUvM0V6QgAkwEVFBnEAoEINApAY/Yf5PUg90Ok95dupEUSSdgfveQmudPpb48sKcUKYAABUABnUAIEIBAZwQ2U8v7Sz2i/SvL76+tVyQ/AbP2mIFPSX17oc8K+DOkIwIUAB2Bp1kIQKBTAjdW6wdJPVjNv/pvL0XaI+B5EXxW4PvSl0p9hwHSMgEKgJaB0xwEINApAQ9K8wHfU+Fy4Om0K65ofFyIeRZC94tnR0RaIkAB0BJomoEABDolsJ1a9wHmFKlP+Xv+faQcAu4P98vpUo8T2EmKNEyAAqBhwLiHAAQ6JbCtWn+N9DSpDzCbSJFyCfiY5HECJ0vfLuWMgCA0JRQATZHFLwQg0CWBG6hxH/h9avlp0mtIkXoIbKpQ95F+R/pqqfsTyUyAajgzUNxBAAKdEvCB4wDpwdKaDhoXKd4l6VnL6lvmzpP60b2ectfvvcxvpJdILb+S+j57z0h4HanFo+p9Ov1aUk9X7Nn6brz8/iZ69RMJrYtSL1O6XF0BeiImFwMj6Rulv5ciGQhQAGSAiAsIQKAIAg9RFK+Q3qqIaNYO4nx97FsOrd9a1jP16gN9qlwmw18kGLsg2EHqOyDG6tH5JRZOjum1Uhd3z5R+RIoUTmCk+JgJsPBOIjwIVE7A1/mPkqbua5qy8y/VL0l9Cvth0q2lNcg2CnIvqeP+stR5NMUo1e8HFFMtPBXqMGWktFM72LYIBCAAgfUI+NT3P0ovlKbuZ3La+XT816Qvlt5HWsMpdoU5VZzHfaUvkX5dmpNZxNcFisXjO7weIAUSGCmm1A62LQIBCEBgLQJ31oeeuS91/5LL7teK4UjpftItpUMQT9rzBOl7pc4/F8tUPz7LcicpUhiBkeJJ7VTbIhCAAARWEvC4Jc/g54FwqfuWqN1v1faHpI+VDn3aYA849NgL37LXZTHgyxSe2MmDQJFCCIwUR+rGZlsEAhCAwJjALfTm89LUfUrEzqf3PyN9tHToB30hWFO20Kd7S4+WmleEd6rtiWp3RylSAIGRYkjtSNsiEIAABEzAv7a7uNb/E7Xr+QRuJ0VmJ7CTFvUvcvNLPQak2vlWSd86uJEU6ZDASG2ndqJtEQhAYNgErqv0/0eauh9Jtfui2ny4lFPKghAQ38f/CKmv06f2RaqdxyiM50fQW6RtAiM1mNp5tkUgAIHhEriNUv+ONHUfMq+d76f3tf09pUh+ArvJpQdMXiqdt29Sl/ezBTy3AdIBgZHaTO042yIQgMAwCXhUvU/lpu4/5rHzAWmD9JZSpHkCt1YTHjTYViHgGRQf13xatLCawEgfzLMhrlzWtggEIDAsAj5l/Gbpyn1BU+/9i/9d0pJnDlR4vRUXAu+Ruh+a6uOVft+kdrikIwhtyUgNreyAed7bFoEABIZD4IZK9RjpPPuJ1GX/V+3sLEW6J+BpiD2zX2pfzmP3WbXjaYWRFgiM1MY8nbNyWdsiEIDAMAj4Fr9TpSv3AU2895iC/zMMpNVl6dkT25hp8Ay14/ElSMMERvKfuhHbFoEABPpPwIPu/DCb1H3FLHbnyb9vDWPaWEEoWK6m2HzL57nSWfo1dZnz5f9+UqRBAiP5Tu0g2yIQgEC/CTxG6f1OmrqfmGbnCWneIL2eFKmHwPUV6mFS99+0Pk793uvdo6RIQwRG8pvaObZFIACB/hJ4ilJrcgCYT/X6ITZIvQR2U+inSFOPI9PsXGA8o148ZUc+UnjTOmC9722LQAAC/SQwUlrrbfvRz/3L7kXSzaRI/QQ2Vwp+EmGTjyV+Xv2YystgpJBSN2bbIhCAQL8IeHrW10lT9wvT7E6T7136hezPsrm5PtlJehfpvZdf/f+W0j7LXZXcd6XT1oHU718t30wfnHENGgU6y7YIBCDQHwLeuR4qTd1BT7Pz5DJ9e1CP747YX3qE9CTphdJJHPz9V6Re/onSHaV9Ep8N8LMZJjGIfOdxB4MpAjbp05qRmMui7PZLtMUMAqURWFJAh5cWlOLxTtW//A9oIDaP8PfB7v0N+O7CpQ/6+0j3lu4wZwAugHxmwGp7y/ek75C6KPD7msWPYvbdHMdLPbFP7nv6vR5dLHUbLiSQAIGRbFOrMdu2IXuokdQYsYNdaevAsW1sNAltvKyh7eyr8rt9QjwlmuyhoD4lbWrku/1+QurLBn2QbZREUw8Z8uUAJEhgJPvUHaRt25A91EhqjNjBrrR1oMQC4JUNbWP/Jb99GOjnMQsnNMRovfXzOLXnswS1iy8JbJCul2fkc6+3SIDASLapHWDbNmQPNZIaI3awK20dKK0A+NcGtq/xKdo29g9NtuF73T1HwWXSLtajS9Wux2T0YY4Ej5O4pAGOz5FPJJHASHapK7Zt25A91EhqjNjBrrR1oKQCwNegc5/O9vX+3aW1i3/1nyktYf05W3Hcs3agyzn8LDNTr7+P7wGbNVO42pqf8iEEIACBGIEHyfxw6UYxN1ex9gFzV2lJRc5VApzxH088c6J0+xmXb3qxbdXA0dKnNd1Qw/4/J//3kJ6esR2vv74z4KEZfRbjigKgmK4gEAj0hoB3wkdKc95l5J373aV+YFCt4oPJy6Wvkm5aWBJXVzy+vc5a83HhDMV/L+kXpblkYznyXRR3y+WwFD81d3QpDIkDAhD4EwH/mvyA9Jp/+ij87ih5uJ/Up3drFe9rN0j/pfAEfBbAgytrPjb8VPHfR/phaS65lhx5vd4ml8MS/NTcySXwIwYIQOBPBDwi+3+kN/nTR+F3/y0PD5N64F/N4l/9j60kgX0Vp+dsqFk8X8DfSv3LPZfcTI5cjLoY6IVQAPSiG0kCAp0T8OltX/P/y4yReOftgYSeA75mea6C98QyNckBCvagmgJeI9ZL9dm+0reu8V3qR3eS4dukXt+rFwqA6ruQBCBQBIGDFcUjMkbi29P8i9k78Zrlvgp+VGkCL1bc96809nHYvsXy76WvH3+Q4fXv5OPfMvjp3AUFQOddQAAQqJ6AR/w/P2MWHnX9VOkfMvrswtVN1eg7pR5EVqP4+OCzMFvWGPyKmL0eHSh984rPom8PkYMHRp10bU8B0HUP0D4E6iawtcLfIM11StQHnCdLaz/4K4Urbh/zdeOaxeM5ah8PYP5en54kdUGWQ8bF0bY5nHXlgwKgK/K0C4H6CWyiFN4tvVGmVDzKej/p5Zn8denmwWr8/zYYwA/l+yTpscuv/r8p8SnvBzTlvEW/Xq8eJ31vpjb9ICIXrN4OkDUIjPSZK68UtW0bsocaSYkPG7iVuA74gNCWvFQN5WLwCfnyveh9kE2VxPekudjYz4XSI6WPll5fupb4gPQYqZfz8jnb9+Q6fTnQXUO5fDojnxfJV5XSlw6NwD9LxqOIA2whUBCBpZZi8S/CZ2Vq65vys5f0d5n8de1mHwWwQ6YgfAfE4dLnSX1/+yQ5X1++c1ldDLh/fPfBZtKo7CQHLj7eHnVUgP0lisFnNU6Q7pwhnmfLx9FSFxXICgIjvU+tQm2LQAAC5RG4nkI6R5q6ba+0+5H8VH0ddVX3eMDfaZnYfEF+tl/lf95/XYh8SbqSeer7U+SnT5eNt1I+udbjH8jXemdm9NUwZaS0U1c22yIQgEB5BN6hkFK365V2Pk195/LSC0XkOyJW5pj63oxz/HJ3Mp6g6V3S1FhW2lU/8t1AVshf6H2uyyUbVvjlrQiMpCtXnnne2xaBAATKIuDZ1ebZjtdb1vdnNzlIritqvv6+Xs6zfn5YA8FvJJ9vyRCbB332TR6qhDxAcNb+mbRcH9fp5P4eBaDaFoEABMoh4NH+P5FO2gHO+t0h5aSVLRJfGvltkM8xsvcgwibEgyyPk87aR2st9xvZX6eJ4Dr26YF8a+U772cep+FbJxERGEnnBThe3rYIBCBQDgEPMBtvn5HXj8pPn64lj3vIzyyIcPm57HPdUjmOafWrD07nSSNx+hdz38RjN3wnSoTL2PaIWuD0cSOshT1xQqAmArsr2EdlCPhs+fAo+T7c678ax31WfzDn/y/U8i4CmhT/Qn1xsIH7Bu1LNPclKa/fZ2YIbm/56COjudGMZDGuiuZ9tS0CAQh0T8D3TecY2X6J/HjQVV/lZCU2735uvPxZsjXnNsSDC5ek47bnff1WG0F21MYuate3o87LZPXy35EPX3IpWjgDUHT3EBwEiiBwkKK4ZYZInisfX83gp0QXPnjfKhDYW2XrAqkN8aOVNwQaurVsiz+4Jeb3ZdmNEm1Xmt1G//zzyg+G+H6kpFdXRrP+b1sEAhDolsCOav430lm32/WW+6x89PkHx+2CjO4g+zbFt1+u11ezfO4ioK/i9fQY6SwcJi1zkXwsSouVPm+QxUInMAhUROAVitX3kUfklzLeV9rH6/5jLjuN3yS8LsnGsyG2KV9TY98PNJjjjFCg+UZNvZ76Ov75wVauKfuXB300ak4B0ChenEOgagK7Knrf9x+VJ8tB5GATbb8N+8jofR+Mu5CvBxq9YcC2BtMfKEg/kjoqvjPk7lEnTdlTADRFFr8QqJ/AyzKk4Fv+3pPBT+kurh0IsKviaCkQcx/nAliN41364KjVH875/0Za/lVSvxYnFADFdQkBQaAIAv7l4jMAEblAxk+KOKjINlIAeCraLsT9kypbpBpWZuezANH+uYd8/E2JeVMAlNgrxASBbglsquZfnCGE58jHORn81OBik0CQvge9C4m0G8m3i1xT2/TZmX9LNV5h91K9L44ZBcCKHuItBCBwBQFP1BMZ1GYnJ0rf6DcIBConcKji/2IwB98i+pigj+zmFADZkeIQAlUT2FjR+/nmEfEo6n+U9nnUf4QPtnUR8Hp8gDS6PnsejKLOAlAA1LUiEi0EmibgXynRX/9vlY+vNB0o/iHQIoGvqq0jgu3dQvYPD/rIak4BkBUnziBQNQH/+v/XYAYeMHVw0AfmECiRgGfEjAycdE4+C1DMcbeYQEwGgQAEOiXgXyeR6Wwd/AulP/YbBAI9I3Cu8oneGnsb+fAdNkUIBUAR3UAQECiCwDOCUfxI9q8L+sAcAiUT8D39PwwG+KygfTZzCoBsKHEEgaoJ7Kbo/SS0iLxAxr+NOMAWAoUT8IOUfEtfRO4iY88N0LlQAHTeBQQAgSIIPD0YxdmyPzzoA3MI1EDgMAW5FAw0ur0Fm7/SnAIgC0acQKBqAlsp+uhMZYfIh5+jjkCg7wS8nr8kmOTfyX6boI+wOQVAGCEOIFA9gQOVwaaBLL4n2+gtUoHmMYVA6wR8tmsp0KrnA3hywD6LKQVAFow4gUC1BLwj2jcYvQdGXRr0gTkEaiLwewX7H8GAnyD7SOEdbL6g+xHDmeAAAhBIIfAQGd0sxXDZ5ny9vi1gjykEaiXwFgV+XiD4m8j2gQH7sClnAMIIcQCBqgnsF4ze86RfFPSBOQRqJPAbBf2mYODR7S/UPAVACB/GEKiawE0V/QMCGVwi29cH7DGFQO0EXqsEfGtgqjxYhpEzcKntXmFHARDChzEEqibgp/5FrkG+R/Y/qZoAwUMgRuBcmb8v4MJjcB4VsA+ZuvGhy6IAdHoaZugdQP5/RmBJn7RxT70LgIi8OWKMLQR6QsDbwd6BXLwdRgcUJjVPAbCwsChyPLwkafXBqCECx8lv0wXATmrjDoH4T5Xt5wL2mEKgLwS8vZ4i9Tz/KXJnGe0o9e20rQqXAFrFTWMQKIbAXsFIPPjpD0EfmEOgLwT8COyIeGKg1oUCoHXkNAiBIgj8bSAKD3pi4p8AQEx7R+BtyigyE+b/64IIBUAX1GkTAt0SWFTzfiBJqnxEhpH7n1PbxQ4CpRL4mQL7eCC4u8p2u4B9kikFQBI2jCBQNQH/+t8okMF7A7aYQqCvBI4MJObt8aEB+yRTCoAkbBhBoGoCkdnHPPnJh6vOnuAh0AyBo+Q28jjsyJwcSRlRACRhwwgC1RLYTJHvFoj+Q7Jl5r8AQEx7S+BCZfaxQHa7y3bzgP3cphQAcyPDAAJVE7i3oo/sZDj9X3X3E3zDBCKXAbxd7tpwfFdxTwFwFRz8A4HeE/irQIYe5fzJgD2mEOg7AZ8B8JMCU2XPVMMUOwqAFGrYQKBeApEC4Hil7dOcCAQgsDaBC/Tx59f+aqZPI9vnTA2sXIgCYCUN3kOg3wRupPR2DqQYuc0p0CymEKiKQGQcwJ2U6Q3aypYCoC3StAOB7gncQyFEbv/7aPcpEAEEiicQKQC8fd69rQx5FkBbpGkHAt0TiOxYzlH43+k+hakR7KAlrG1LF222nePK9pxvq9erlxs/U6/WkuWbCu5H0psnBulCvZVimwIgsYcwg0CFBO4ZiPmYgG2bpo9VY89vs8GBtuUn2EWfJpmC7hAZjVIMW7TxMzKOkz4ysU0XAK0IBcDCwlkiPWqFNo1AYDYCS7MtNtdSG2vpv5zL4qoLn3jVf/kPAhCYQMDbS2oBcFfZenu9bIL/LF9RACwsnC2SrioRCPSZgAf/XTuQ4OcCtphCYGgETggkvIVsbyf1pYRG5WqNesc5BCBQCgGPLk6VX8rw5FRj7CAwQALfUs6/CuR9x4DtzKYUADOjYkEIVE0gcvvfF5T55VVnT/AQaJeAT99/MdBkZHuduVkKgJlRsSAEqiYQ2aF8perMCR4C3RA4KdCsLwE0LhQAjSOmAQgUQSBSAPh0JgIBCMxHILLdRLbXmaOkAJgZFQtCoFoC11PkWwWib3wwUiA2TCFQKoHIdrOtkrpu04lRADRNGP8Q6J7AbRWCZxhLkYtl9N0UQ2wgMHACpyv/SxIZeHu9daLtzGYUADOjYkEIVEtg+0Dk35Zt4/cjB+LDFAKlEvBTAU8JBLcYsJ3JlAJgJkwsBIGqCWwXiP60gC2mEBg6gcj2s9g0PAqApgnjHwLdE4gUAEvdh08EEKiWwFIg8sh2O1OzFAAzYWIhCFRNYDEQ/VLAFlMIDJ2Ap5pPFQqAVHLYQQACfyQQ2ZFEdmB/DIA3EBgogcj2s9g0M54F0DRh/EOgewKpjyV15Evdh99aBH7MrDVFdpCRdSgCq9l6OlIARG7dnSk6CoCZMLEQBKolcA1F7oeLpMo5qYYV2h2hmEeJcdvu+Ym2NZrBarZei2w/11ETm0p9N0EjwhiARrDiFALFELhhIBI/zOR3AXtMITB0Ap5H49eJEDwXwA0SbWcyowCYCRMLQaBaApEC4LxqsyZwCJRDILIdRbbfqQQoAKYiYgEIVE0g8gvi51VnTvAQKINAZDuKbL9Ts6cAmIqIBSBQNYHIL4jIL5eqoRE8BDISiGxHke13agoUAFMRsQAEqiZw7UD05wdsMYUABK4kECkAtmgSIgVAk3TxDYHuCfgugFT5baohdhCAwB8JeCBgqkS236ltUgBMRcQCEKiawNUD0dd4B8ClgXw3Dth21W4g5IUa841wjrCK2KY+EdBtRrbfqTFTAExFxAIQqJpAZAcS2XF1Be2iQMORyyWpt3o53EZP807g4fvMU+XCVEPZRfKN9G8g5JBpZDuKbL9Tg6YAmIqIBSBQNYHIDqTGMwCRA0TkwBQ5IG7b0Rq2GGj3goBtV4VHIOSQaWQ74hJACD3GEBg2gaEVAF39Ej8vsJr9RcA21dSTzNw51Vh2kXwjhVakwAukGzLlDEAIH8YQgAAEZiPQVQFw+mzhrbnUdvr0jmt+09yHd5LrbQLuI/lGCoBI/wbS7acplwD62a9kBYExgcg84pGzB+P2236NHCAip+K/p0QvCyT70IBtimmkPQ/ES31okmONcI5caknhlMMmcho/cvZgauwUAFMRsQAEqiYwtALgR4HeuoVsU0fGe0d9WqDt/WQbOVDM0/RmWnjfeQxWLXuq/k+9ru0H0O24yt88/0b6d552ci4b6ddUzjPFTwEwEyYWgkC1BCIFQGTH1RUwP3419Ze48/Xp+FQ5OtVQdm73wID9PKZP08KRX+GfnaexVctur/9Tzyy5X5dW+avh39R8nRtnAGroYWKEQKEEIr8gIjuurnB4h3lOoPFbBWwjBYCb/VfpTQLtz2J6Uy307FkWnLBMpAC45QS/0746WwtE1udp/pv6PlJIUwA01Sv4hcAACERmIdu8Uj5nBOK+Q8D207KN8PaDX94nbarwst//kV5fmiq/kWGkAIjwjfRrar457HzJJVUaLXi4BJDaLdhBoA4CvwiE2eiDSAJxTTONHCj2mOZ8wve/0ncfnPD9LF/dSwsdKvVtejnF/t4o3TXo9AOyjwzE2yPQfqRfA82GTSPbUaO3PVIAhPsWBxAomsAQC4BTAz2ym2w3Ddi/PWA7Nv17vXmnNNcZmGvK17ul+0mjckTAgU+Fm2+qRPo1tc0cdjcKOPl5wHaqKQXAVEQsAIGqCUQKgMiOq0toJwYa93TAdwvYf0K2pwXsx6aP0ptjpZER8/blOxuOkz7C/wTlFNl/MuDDXF2MpEqkX1PbzGEX2Y4oAHL0AD4gMFACvwzkHdlxBZoNm35dHn4d8HK/gK1Hqr8kYL/SdBf98x3pq6Xz9sWNZfNa6cnSu0hzyIvl5PKAoz0Dtp56+BsB+y5N5+27lbE2WgCsbKiJ9yM5/UOi2haBAARiBK4l89Rt0HaREcyxyGPW/qWamnf0VLMvIXw30P5acbugea90b+l615R9oNlH+j6prx2v5Sf1MzPxPfyp4jEIp0tT2/9YasMd23kAYGrOLrYizKem3qjzqa2zAAQg0DQBHwg8OO26iQ1tLbvvJdp2aXaCGr9/YgC3kp1PV38x0d5zLzxd+pFE+7XMXMg9bFn9/Y+lP5K6f/3dVtKbSZsSzx1wacD53WW7U8D++IBtl6bbBhr35bsI86lNMwZgKiIWgED1BH4QyGD7gG2XptEDhn9JR+SjMn5/xMEU2y31vU/t33v5tcmDv888RK79y/yKMxN+TZVof6a2G7VbDDg4N2A7kykFwEyYWAgCVROIFACLlWbuMwCRJ9Y9UvbRyx8HyEfjO/GG+8dnGg4MtmGOjwj4+JlsPx+w79I0UkAvNR04BUDThPEPge4JDLEA8Gn4yC9wX2d/XLDrfiJ7j+b3wMAaxdegfSbkp8HgHy97T3KUKh7T0Oip8NTAZrCLFABnzeA/tAgFQAgfxhCogkCkAIjswLqGc2QwgINkv0nQx9Gyf27QR1fmz1LDnwk27gGR9hMRFwC1ymIg8KWA7UymFAAzYWIhCFRN4IxA9LcO2HZt+lkFEPn1uoPs/Qs+Ki+Vg/+IOmnZ/lC19+8Z2txbPhYDfnwJ5diAfdemtwkE0PgZgEBsM5mOtNQfEtW2CAQgECewi1ykbocXyzb6KzieQbqHNwZyN7NTpDny94+tw4OxpPbhvHb/pThz/Dg0t9OCOb9e9rWKz35cIp2X/3j5XPM3dMZvFEjetggEIBAnsIVc+HrueMcy72vkV0w8+piHvwjkPeb09FgIf7TeSO9G0rHfEl9fo/gcZw75JzmJ5ninHIF05GPnYP7X6yjubM2OAgBsi0AAAnkI/FBuUnfGkRHceaKPefEp5NTcbed5FLaMhXAV66fqv8gvw0gu69n6TM+TrxJl7J+by9yz963X3iyf+xJOzfJoBT9Lnmstc3Ybiec4zdNGnLQBAQjECJwaMI88wjXQbDbT6PX36yiSV2aLZmHhdfJ1T+n3MvqMuPLBZg/pGyJOVtmauc88ReRVEeMCbG8fiOFbAduZTSkAZkbFghComkBkHnWfRq9ZPqTgowdb/5p7YEYIJ8mXr/H+p/SyjH7nceV2Xyt1gfeFeQynLPsgff/wKctM+/p0LfDRaQsV/n1ku/lm4bnNFN5IS611emOWz2yLQAACeQh4NPYs291ay/gU+MZ5wujMy9MC+Y+Z+I4CT7mbW3ygiF6mGMc466tPrzdxfX1r+fXEPbPGsd5yB8hHzeLt5QLpevlN+/yRNSc/jn0UAGBbBAIQyEPgtnIzbacz6Xv/SqxZNlfwPtU9KcdZvvOBOsddAWuxvJc+/Lg0MmBzUg72+zHprtImxFw8Ze+kGGb57kz5iM7C2ER+8/h0UTdLrustc7t5Git12VEAgm0RCEAgDwH/IvET5dbb4Uz7POcAsTwZze8lchZkJR8/FrdJ2UHOD5b6NPjKdlPfe/zH86TbS5sUz3eQGuNKuz78+j0wwMLbaVNFZpP9/2e+R/pkZcfO8962CAQgkI/ACXI1zza4ctl35AujM08e8/SVAIMxD/+S3lfahvig/QTp26RflvpyzDiOtV79vZfz8o+XLkrbELdlLmvFNM9nX5SPjdoIuOE23h1g8ZmGY2vN/SgAwbYIBCCQj8DL5WqenfHKZc/JF0annvYIMFjJw88aeHBHmdxE7d5C6kGE915+9f/+vAt5iBo1j5V8Ut87n9rFBYwf1ZzK4JDaAYzjHwUg2BaBAATyEfCOOnWnZLud84XSqaf3BzmMGV4kP76db8ji8QS/kY6ZRF7f1xOQdw7yuH9bHHxKDIEABIZBwJcAfJo2VR6QaliYnUeYn58hpmvKh29V2z2DrxpdOO+PSD3AMio/l4OnRJ0UYh/ZTnxr5pfayoMCoC3StAOB7gn8QiFEJhj56+5TyBLBj+XlwCyeFhauKz+fkO6VyV8tbv5GgfqOAuefQ3zwPzeHowJ8PDAQg7dPj+PohYyUReopIdsiEIBAXgKvkbvUbdLT126RN5xOvfmUcyqL1XaXytcTO82mvcb/QU0539UMUv9/T3uhN96SC6LIeIhXNh5hiw2M1FbqSmFbBAIQyEvgQXKXuk3a7mF5w+nU243Vun91Rnistj1U/jbrNKvmGndeni54dc6R/3025obNhdy6Z9/CGOGxZ+sRN9jgKADDtggEIJCXgK/XRgZtvTdvOJ178+Q7uR/M81X53KnzzPIG4Hy+Jo0c3Fbb/k7+7pM3zM69fSDAyPf/X6PzDDIGMJKv1Z0+6/+2RSAAgfwEfO121u1w9XIXyfba+UPq1GOOaYJXc/J13MdKa7+n3fE/ThqZ1nY1m/H/fRn0JzxXiC+P/VY6zm/e1w9e6aY/f0cBGLZFIACB/ASiB7w+zNS2muph+mDeHfYsyx8rvzuvbqyS/2+pOD8pnSXPeZc5vBIG84S5T5DVk+dprIZlRwEgtkUgAIH8BHaUy3l32CuXf3/+kDr36FOvJwa5rGS08r1Pdb9MWssAyuso1ldIHffKPHK99+2oV5f2TT6khCKMFvsGZBQAYlsEAhBohkDkeu7FCulGzYTVqVcPCjxZGtmJT7I9T75H0htISxTHdYj0fOmkPCLffVu+zblv4lkYI2NJvtw3IM5nJE1dWWyLQAACzRB4jtymbpu2e0YzYXXudUtFcJo0wmaara+nv1S6rbQEcRw+Q9HEdf6VLE5VGzcrIeEGYvgX+VyZ67zv/7mBmDp3OQpAsS0CAQg0Q2AHufWsgPPuqMbLnyLb2ge4rUfWz7Q/I8BmzGjaq2d98+nw/aU+7d6m+G6QvaQ+bZ3znv71cv6u2tlK2lf5jhJbL/dpn3s73K6PYEYBKLZFIACB5gh8Ra6n7Zwmfb9bc6F17tk75CXppPxzfneR2vLYiqdKbyfNLS7W7NcDQH2rWuRW0HnzPlPt+SxDX2V3JTYvk5XLe+xJJ7JJJ63SKAQgUAKB/1YQdwkE8kTZ+hdsH+VsJeUH3XxYeqcWEvRzBR66rG7uXOnxUp9p8alzX5Y4XXqhdJp4sOGtpB7Ff2vpbaSe7+Cm0rblJDX4EOmP2264xfb+PtjWkUH7Ys1HimxlpTPPe9siEIBAcwR8PTYybenFsu/rNd0xdc958BHpPPuuJpd1AeCDqU+p+wzOscuv/t+fezKZJtufx/dRiuVa0j7LzZWct4N5uKxc1tufx530UkbKamWy87y3LQIBCDRLwDvpebbL1cu+sNnwivC+saJ4XZDTam59//9N4jWEM8wezBnpyz7eUiskV8pIL6lwbItAAALNEvhbuU/dRm3nW8b8K3kI8hQlGZnpLcK5FlvzefIQVgbl6Estv5BG+qYvT9hcs8tHATi2RSAAgWYJ+FeaTx1HdmIHNhtiUd5vq2i+EeQVYV2y7cnicseieqvZYHwrbKQ/zpG9zy51JlfrrGUahgAESiDgW8A2BAPxjnAIp3uNybd73U36Wql3/siVBI7Qyy5SF0dDEM9k+PRgom+VvW8F7a2MlFlqhWRbBAIQaJ7ANmoiMhjQ2/gTmg+zuBY8uv370tR9XB/sfLfEg4rrmeYD+odgv7vw3q75MLttYaTmU1dy2yIQgEA7BHwrUuq2ajsfCK7RTqhFtXJNRTOSDm1sgJ8T8BrpUMZ/KNU/itfzaOHnW3B7LyNlmLpTsS0CAQi0Q8CT+qRuq2O7oQz+WqtHdtSHH8rAcMyy5NdPKU/PLzBU8WRK0f65+xDgjQKgbItAAALtEfB95ZEd2w9kv1l74RbZ0l8pKt+bH+FYqu0xymtP6ZDFZ3yig2aPGwrAkRJNXZlti0AAAu0R2EtNpW6vY7tntxdu0S3tquh8RsDzvI/Z1PrqX/z3lCILC88ThGg/euzIIGSkLFNh2RaBAATaI+C7gvy41tRt1naeqc6zoyFXEvA0whuk5hLh2rat4z1cOqTb+pTuRNlK30ZnWjxVPrydDUJGyjJ1xbUtAgEItEvgsWoudZsd2/nAgVyVwOb612dYfFbAI8DHrEp69S1pJ0j9dMIhDu5T2hPlHfo22l97T2yhZ1+OAsBsi0AAAu0S8MQk35VGdnQ+kNy13bCram07Rfsv0k9K23wq31p96vYdxzOlfX5in9ILiQftRS/n+IFOm4SiqMx4pHjXWulm+cy2CAQg0D6Bx6vJWbbRSct8Xj4Gc6oz0EU+M+CBdS+Tfll6sXQS1+h39v8lqeewd7tDH7QpBFPFRbGZRdk/YmpLPVtgFIBmWwQCEGifgHd40bEA3lkOaYrgXL3kX4i+xc6XCw6Rvk8aOfDY3n4eJrXfQf0CVb45JDrlr/vvW9LBFcQjJZ268toWgQAEuiHgZ9OnbrtjOw+Y2r6b8HvV6phnymuvQHSQjC+L5BjA6e2pOBlcRVJcDxAQBMok8AGF5dP4EfGz4F8XcYAtBDom4McaRwdEejv6YMd5rNk8BcCaWPgQAhAQgYMyUPA88Y/J4AcXEGibwD5q8AHBRj1w0A8N8tmb4oQCoLguISAIFEPgeEVyZIZo/lM+tsvgBxcQaIvA1mrIzzqIytvlwIM7ixQKgCK7haAgUAyBf1YkFwWjuZ7sj5B6cCECgdIJ+Ljo9fX6wUA9Bubfgj4aNacAaBQvziFQPYEfKIOXZMjiXvLxrAx+cAGBpgn4oL1HhkZeJB8/yuCnWhcjRZ4yctU2tkUgAIHuCfhe8TOkqdvy2O538rFL9+lUF8GYX8prdcl2HLAn/Pm9NIX1SptT5eMaHecytXnOAExFxAIQGDwBTx7zRKl3cBHZVMa+L/1GESfYQqAhAjeQ33dLo3MleDs5QHqJtGihACi6ewgOAsUQOFqRbMgQje+rfo+U8QAZYOIiGwEfC98lXczg0bcOfjaDn+pdjJTBytMi87y3LQIBCJRD4LoKxWMC5tmO11vW10eR2Qisx3CWz2drgaU8FfMsPKct42v+HvSKiMBIOg3Yet/bFoEABMoi8HcKZ71tdp7PfX90kbOjlYX7imjm4bp62QLTKS4kr9NeH1ezS/mfdXpF944CUG2LQAAC5RHwqdKUneNqG98mdZfy0isuotXc5vm/uGQKC8iDUn2b6zxM11vWtw5WJYwBqKq7CBYCRRB4sqI4O0Mknir4Q9LtMvjCBQTmJbAog6Ok15zXcI3lz9JnT1nj86I/ogAounsIDgJFEviVovI0qZdliG5L+fiolOumGWDiYmYC19GSPvjfbGaL9Re8VF/tLb1g/UXK/IYCoMx+ISoIlE7geAX4ikxB3lZ+fHtg8fdNZ8oXN90S8LwWH5DePlMYHtD6uUy+WnUTvd+x1WBpDAIQKIrAwYpmd+k9MkR1P/nw7YF7Sf2LqnZ5pRK4YwFJfCpTDN+Qn2dm8tWlG89F8d/S+2QK4kT5eWEmX71zM1JG6w2YmPa5bREIQKBsAj6F+mPptO151u/fK199mCPg6IxMZmXX5HLOp3YZ3+ufi9NPBGTrmqFwCaDm3iN2CHRPwDvBR0tzjAdwNg+TvkW6kf9BIJCJgNenN0gflcmfz1I9Qup5MaoVCoBqu47AIVAMAf86HGWMZl/5+k8pRUBGqAN25ePcodL9MzJ4tnwdm9FfL12NlFWu0y34geV668Aega3nmMA6GmnXB8318uHzK9m8U4xqHafUt/51PjWKLye9VZpzm/pf+etFcVrrxlXjikjMEIDAfAR8acGDth4j9RPaEAjMQ+DqWtiTVnmmv1zydTl6rNQFRfXCJYDqu5AEINBrAr4r4P3SHJO19BoUyV2FgCeZ+qA058Hf1/sfLPUMlr0QCoBedCNJQKDXBB6k7HwK+qa9zpLkchHwnSleXx6Qy6H8XCj1wf+HGX127ooCoPMuIAAIQGAGAnfVMp+X3maGZVlkuAQ8qZTXk10yIvAdLr4M5bkQeiUUAL3qTpKBQK8JbK/sPPHK7r3OkuRSCdxHhl4/FlMdrGHna/1PkvqZFb0TCoDedSkJQaDXBK6v7D4tPajXWZLcvAR8i9/HpbmfKfEc+fS8FL0UCoBeditJQaDXBHz30kul75AyOLDXXT01uc20hG/ze5PUo/5zyiFy9rKcDkvzRQFQWo8QDwQgMCsBMd2D0wAABnNJREFUX5f1Kd8dZjVguV4R2FbZ+KFU+zWQ1Wvlc9SA36JcUgAU1R0EAwEIzEngTlr+K1JPIYwMh4Cn4fWgvL9sIGWfTfjHBvwW55ICoLguISAIQGBOAh4X4IcIvV167TltWbwuAlsoXB+g3yPNfb3fJN4gPUDqwX+9F19LQyAAAQj0gcA+SuJe0r2lvjTQpTxTjbsw6Yv8ooBEfCvoO6W3aCgWX+/3HP+DEQqAwXQ1iUJgEAQWleUx0ldKXyD9rbQLOamLRnva5ubKayT9J2lTx6znyveLpIMSLgEMqrtJFgKDIOCDhH/J+RrxHlKkXgL3U+jfkj5L2sTB36f6ny4d3MFfOS9QAJgCAgEI9JHATkrqs9I3S/t0Or6PfbU6pxvqA9/e9ynpjqu/zPT/xfLzSKlH/CMQgAAEINABgV3V5k+l/jXWlJ4v3/6l18SvSLlFMhFw/3hSn6bXh/PUhseLIBCAAAQg0DEB/8o7RdpUATD26zb+uuNcaX5tAj7d/03puK+aej1Dbdxq7RD4FAIQgAAEuiBwAzXqU/ZN7fhX+j1K7dyxiyRp888I3FmffFi6sn+aen+M2vHlBQQCEIAABAojsKnieb20qQPASr+Xq50jpbeVIu0TuJ2afJ/U/bCyX5p6/yq1wyUgQUAgAAEIlEzA9/JfJG3qYLDSrx/3eoSURw0LQgviA/87pea+sh+aev9rtePBfggEIAABCFRC4NaK82RpUweG1X79S9Sjzh8iRfIT2E0u/Vjdtn7xu39Pl95eikAAAhCAQGUErqN4fZp+9cG66f+/rDb9qzH3E+bkclBifo+S+nkNTffZav/vUJtefxAIQAACEKiYwF6K3dPRrt7JN/2/bx/03PP8ihSEOeSWWtaPbD5X2nQfrfb/K7W5jxSBAAQgAIGeENhBeZwoXb3Db+N/n7Y+VvpYKb8qBWENua4+21d6nLSNPlmrjRPU9qIUgQAEIACBnhHYWPl43vZLpGsdANr4zM8XeL/Up7aH/vTBLcTg0dIPSj2zXhv812rDbXu98PqBQAACEIBAjwl4JPnnpGsdDNr87DeK4X+lT5RuIx2CbKsk95e6CHL+bfJeqy3/6ucODkFAIAABCAyFgJ9l8lTpBdK1DgxdfOYH17xcen+pfx33QZzHX0lfIf22tAuua7Xpa/0HSHmmjSAgEIAABIZIwL9IPyBd6yDR5WeXKqaTpK+VPkLqOGuQ7RSk74Bw3F+VOo8uOa7Vts+6bC1FAgQ2CthiCgEIQKAkAv7V/WppyTP7/VLxfVPqMwV+9S/qM6U/kbYtW6pBD6zcWXoH6e2X9Xp6LVXM7RnSz5QaYE1xUQDU1FvECgEITCPgqV59Wngkvb60FvHAwrOkS8uvP9Xrz6XnSX+2/HqhXn8n9QyJFv/vX+fO2afpLdeSXl3q/28kvbH0hst6U70uSrdf1s30WouYw8HSw6TOGYEABCAAAQisScAHv3+X+sC61ilkPquDi/vP/VhTMadwEQhAAAIQ6JrAVgrgNdIub1Gj2Ji/2PCZDk/A5P5DIAABCEAAAskEfK37bdLfSzkgl8vAB/43S7eTIhCAAAQgAIFsBBbl6XVSX0enECiHwa+X+8WFGgIBCEAAAhBojIAHx71A6sFlFALdMfDdD8+VeqAiAgEIQAACEGiNwDXV0uOlX5ZSCLTH4Gvi7dkTa7oTQeEiEIAABCDQRwJ3UVIeeObT0RQD+RlcsMx3N70iEIAABCAAgeII+Kl2T5AeLb1MSjGQzsD8jpf6LIvnKEAgAAEIQAACVRDwA34Okn5DSiEwG4PLxeoL0n+Sbi1FIAABCEAAAlUT8Ah1H9SOlXo2OgqCPzEwjxOlLpY80yBSAYGNKoiRECEAAQiURsAzDT5I6ucP3FfqefWHJh7B/3Hpx6Sfkv5CilREgAKgos4iVAhAoFgCfgDR/aQuBnaV+jbDvskPldAJUv/SP07qhxn5LAhSKQEKgEo7jrAhAIGiCfg0+N2kd13WO+vVtxzWIn5q4bekHvvg6/k+8J8tRXpEgAKgR51JKhCAQLEErqbIFqU+U2C9zfLrol5vIu1C/Ov9x9KzlvVkvfqgb/2+FOk5AQqAnncw6UEAAsUT2FwRbrusvutgK+kNVuj1l99fQ6/jx/3q7YJvV3Rh4QF4F0otnuLY8+n7s/HjhD3b4Vh/qvc/kC4t6yV6RQZK4P8DMsCIl4Aek0IAAAAASUVORK5CYII=;fontColor=light-dark(#333333,#FFFFFF);" parent="1" vertex="1">
          <mxGeometry x="173" y="451.2" width="63.6" height="63.6" as="geometry" />
        </mxCell>
        <mxCell id="nmn-EADKqHjRLLAk0anp-31" value="" style="endArrow=classic;html=1;rounded=0;entryX=0.527;entryY=0.212;entryDx=0;entryDy=0;entryPerimeter=0;dashed=1;fontColor=light-dark(#333333,#FFFFFF);" parent="1" edge="1">
          <mxGeometry width="50" height="50" relative="1" as="geometry">
            <mxPoint x="400" y="440" as="sourcePoint" />
            <mxPoint x="400.11800000000005" y="389.88800000000003" as="targetPoint" />
          </mxGeometry>
        </mxCell>
        <mxCell id="nmn-EADKqHjRLLAk0anp-32" value="5" style="ellipse;whiteSpace=wrap;html=1;aspect=fixed;fillColor=#fa6800;fillStyle=solid;fontColor=light-dark(#333333,#FFFFFF);strokeColor=#C73500;" parent="1" vertex="1">
          <mxGeometry x="408" y="404" width="30" height="30" as="geometry" />
        </mxCell>
        <mxCell id="nmn-EADKqHjRLLAk0anp-33" value="If Client replies &quot;Terminate&quot;, Proceed to step 5, otherwise&lt;div&gt;restart from step 2 with feedback from Client&lt;/div&gt;" style="text;html=1;align=center;verticalAlign=middle;whiteSpace=wrap;rounded=0;fontSize=10;fontColor=light-dark(#333333,#FFFFFF);" parent="1" vertex="1">
          <mxGeometry x="541" y="530" width="140" height="80" as="geometry" />
        </mxCell>
        <mxCell id="XuFqCDwgsl9ZABi-K6mr-1" value="Output" style="edgeLabel;html=1;align=center;verticalAlign=middle;resizable=0;points=[];fontSize=12;fontColor=light-dark(#333333,#FFFFFF);" vertex="1" connectable="0" parent="1">
          <mxGeometry x="370" y="416" as="geometry" />
        </mxCell>
      </root>
    </mxGraphModel>
  </diagram>
</mxfile>
